<?xml version="1.0" encoding="UTF-8" standalone="no"?>
<!-- Created with Inkscape (http://www.inkscape.org/) -->

<svg
   version="1.1"
   id="svg1"
   width="1489.4545"
   height="1489.4545"
   viewBox="0 0 1489.4545 1489.4545"
   sodipodi:docname="Hourglass_Solid_Black_6.svg"
   inkscape:version="1.4.2 (f4327f4, 2025-05-13)"
   xmlns:inkscape="http://www.inkscape.org/namespaces/inkscape"
   xmlns:sodipodi="http://sodipodi.sourceforge.net/DTD/sodipodi-0.dtd"
   xmlns="http://www.w3.org/2000/svg"
   xmlns:svg="http://www.w3.org/2000/svg">
  <defs
     id="defs1" />
  <sodipodi:namedview
     id="namedview1"
     pagecolor="#ffffff"
     bordercolor="#000000"
     borderopacity="0.25"
     inkscape:showpageshadow="2"
     inkscape:pageopacity="0.0"
     inkscape:pagecheckerboard="0"
     inkscape:deskcolor="#d1d1d1"
     inkscape:zoom="8.3037114"
     inkscape:cx="816.08087"
     inkscape:cy="695.47215"
     inkscape:window-width="1920"
     inkscape:window-height="991"
     inkscape:window-x="-9"
     inkscape:window-y="-9"
     inkscape:window-maximized="1"
     inkscape:current-layer="g1" />
  <g
     inkscape:groupmode="layer"
     inkscape:label="Image"
     id="g1">
    <path
       id="path1"
       style="fill:#000000"
       d="m 705.15625,391.875 c -11.70525,0.77003 -23.51322,2.32287 -34.24609,4.58008 -12.19664,2.56505 -26.35369,6.60522 -33.76172,9.63476 -2.56897,1.05059 -5.64852,1.91016 -6.8418,1.91016 -1.19328,0 -3.21723,0.79846 -4.49805,1.77539 -2.06069,1.57177 -14.26346,7.67969 -15.34375,7.67969 -0.22922,0 -1.24859,0.65312 -2.26562,1.45312 -1.01704,0.8 -2.26637,1.45508 -2.77539,1.45508 -0.50901,0 -3.08171,2.15788 -5.71875,4.79492 -4.90326,4.90326 -5.6713,6.75523 -4.05078,9.78321 0.57228,1.06931 0.13903,3.12386 -1.8711,8.86132 -1.43927,4.10807 -3.12562,9.43399 -3.74804,11.83399 -0.62241,2.4 -2.2355,7.63672 -3.58399,11.63672 -4.734,14.04241 -6.07474,23.10722 -6.82617,46.15234 -0.41431,12.69094 -0.41115,25.07024 -0.004,32 0.6571,11.04485 3.37174,28.81624 5.4961,35.97852 0.58508,1.9726 1.07017,5.90111 1.07617,8.72851 0.0109,5.13682 0.7188,8.04711 3.0918,12.70703 0.69331,1.36145 1.25976,2.91459 1.25976,3.45313 0,0.53855 0.32852,0.98047 0.72852,0.98047 0.4,0 0.72656,0.63376 0.72656,1.41015 0,0.77639 0.32656,1.61412 0.72656,1.86133 0.4,0.24722 0.72852,1.08493 0.72852,1.86133 0,0.77639 0.24492,1.41497 0.54492,1.41797 0.3,0.003 0.91174,0.73984 1.35938,1.63672 0.44762,0.89688 1.38927,2.77578 2.09374,4.17578 2.04166,4.05722 6.37286,10.37673 8.54688,12.47266 1.1,1.06047 2,2.30699 2,2.76953 0,0.90507 3.0723,6.65163 4.55273,8.51562 0.49627,0.62485 1.96563,2.23678 3.26563,3.58399 1.3,1.34721 2.36328,2.77228 2.36328,3.16601 0,0.39374 1.14492,1.86172 2.54492,3.26172 1.4,1.4 2.54688,2.81938 2.54688,3.1543 0,0.78058 5.11487,6.50884 13.63476,15.26757 3.7,3.80373 6.72852,7.1758 6.72852,7.49415 0,0.31836 0.6344,0.78112 1.41016,1.02734 1.3632,0.43267 6.80847,3.96488 14.10937,9.15039 1.37643,0.97745 2.21563,1.69344 2.52148,2.15039 0.17776,0.14021 0.3807,0.24405 0.57422,0.36133 0.24897,0.16394 0.51,0.30863 0.76953,0.45508 0.28188,0.13481 0.51788,0.33693 0.75586,0.53515 0.18774,0.16282 0.36255,0.34087 0.54688,0.50782 0.17992,0.17592 0.39026,0.31288 0.59375,0.45898 0.25343,0.15139 0.45319,0.37319 0.68164,0.55664 0.20655,0.18596 0.43822,0.33775 0.64844,0.51953 0.18599,0.15095 0.39959,0.26601 0.60937,0.38086 0.29913,0.13751 0.58488,0.3022 0.86133,0.48047 0.24774,0.17164 0.47198,0.3742 0.70508,0.56445 0.22206,0.16845 0.40033,0.38423 0.57226,0.60157 0.12806,0.19258 0.27367,0.36997 0.42188,0.54687 0.13639,0.15746 0.2722,0.31902 0.4375,0.44727 0.19454,0.14949 0.3767,0.31247 0.56055,0.47461 0.16987,0.16019 0.3388,0.32331 0.50976,0.48242 0.17662,0.17963 0.37466,0.33188 0.58008,0.47656 0.22952,0.14449 0.43484,0.32266 0.66016,0.47266 0.20769,0.12886 0.39935,0.28648 0.61132,0.4082 0.23513,0.14024 0.4575,0.2989 0.66407,0.47852 0.20446,0.15484 0.36641,0.35534 0.55078,0.53124 0.22079,0.18148 0.45397,0.34535 0.66601,0.53711 0.21522,0.18447 0.34728,0.43581 0.51563,0.65821 0.0899,0.16056 0.19815,0.29871 0.32031,0.43359 0.13964,0.1278 0.27782,0.25729 0.43359,0.36524 0.22452,0.15564 0.46077,0.29436 0.69336,0.4375 0.24613,0.14669 0.48576,0.29832 0.71485,0.4707 0.23169,0.15233 0.43862,0.33791 0.65039,0.51562 0.18241,0.16189 0.35938,0.32922 0.53906,0.49414 0.18124,0.17738 0.35851,0.35915 0.54297,0.53321 0.22263,0.1974 0.42122,0.41886 0.60742,0.65039 0.16381,0.17745 0.31199,0.37184 0.49219,0.5332 0.2313,0.17869 0.46807,0.34786 0.70312,0.52149 0.21361,0.16143 0.44754,0.29233 0.66797,0.44336 0.2031,0.14143 0.3978,0.29458 0.58789,0.45312 0.18786,0.18032 0.38669,0.34894 0.57813,0.52539 0.16088,0.17735 0.34666,0.32667 0.50781,0.50391 0.14291,0.1609 0.28617,0.32021 0.42773,0.48242 0.14707,0.17761 0.31833,0.33092 0.48047,0.49414 0.19194,0.18453 0.37325,0.37452 0.52539,0.59375 0.0844,0.14311 0.15101,0.29699 0.19141,0.45508 0.74952,0.36117 2.03006,1.31829 4.25391,3.07226 5.14074,4.05456 12.50147,10.70357 14.41211,12.92774 0.0788,0.0261 0.1614,0.0624 0.24804,0.10937 0.26314,0.14276 0.50555,0.31385 0.74219,0.4961 0.21375,0.16794 0.41519,0.35286 0.60742,0.54492 0.16366,0.15658 0.28076,0.35366 0.43555,0.51758 0.17724,0.20074 0.34207,0.41248 0.50977,0.62109 0.18623,0.236 0.37165,0.4722 0.5664,0.70117 0.1621,0.16027 0.33307,0.31228 0.50781,0.45899 0.20169,0.13209 0.37447,0.30193 0.53907,0.47656 0.15092,0.16986 0.26627,0.36683 0.40039,0.54883 0.11217,0.18837 0.26409,0.34475 0.39453,0.51953 0.15875,0.21956 0.2912,0.45624 0.41797,0.69531 0.10967,0.21346 0.17546,0.44717 0.28125,0.66211 0.0734,0.1544 0.16139,0.30235 0.24609,0.45117 0.11617,0.14822 0.22335,0.30103 0.31055,0.46875 0.0913,0.16919 0.17136,0.34282 0.25976,0.51367 0.10541,0.16691 0.20725,0.33632 0.32618,0.49414 0.14067,0.22486 0.2953,0.44155 0.43359,0.66797 0.13448,0.18452 0.25944,0.37497 0.37109,0.57422 0.0969,0.20431 0.16766,0.41932 0.25196,0.62891 0.0731,0.21393 0.16442,0.421 0.23242,0.63672 0.0732,0.16829 0.12094,0.34424 0.18554,0.51562 0.0862,0.22481 0.1632,0.45055 0.2168,0.68555 0.0517,0.25578 0.0638,0.51786 0.10352,0.77539 0.0296,0.16909 0.0417,0.33932 0.0742,0.50781 0.0115,0.0598 0.019,0.11708 0.0234,0.17188 2.09257,6.41007 2.69203,10.03708 2.32032,13.66406 -0.24287,2.36979 -0.68455,4.96367 -0.98243,5.76367 -1.85121,4.97175 -5.04733,10.06358 -8.90039,14.18164 -9.08274,9.70742 -13.40487,14.03415 -15.17187,15.1836 -4.34401,2.82582 -9.45508,6.82193 -9.45508,7.39257 0,0.3411 -1.82612,1.86339 -4.05859,3.38477 -4.04221,2.75468 -6.27539,4.27298 -7.50977,4.99805 -0.14875,0.20875 -0.29901,0.41648 -0.45117,0.62304 -0.26099,0.30391 -0.53142,0.60133 -0.81445,0.88477 -0.27147,0.25344 -0.56236,0.48512 -0.85547,0.71289 -0.27003,0.22256 -0.53635,0.45074 -0.81836,0.6582 -0.24743,0.1767 -0.49451,0.35029 -0.70508,0.57227 -0.30461,0.28531 -0.59284,0.58854 -0.89453,0.87695 -0.35167,0.33177 -0.68993,0.6779 -1.04883,1.00195 -0.30133,0.24677 -0.6038,0.49062 -0.89453,0.75 -0.24289,0.22116 -0.47366,0.44966 -0.67969,0.70704 -0.0576,0.0633 -0.11674,0.12547 -0.17578,0.1875 -0.0252,0.0479 -0.0543,0.0969 -0.0879,0.14648 -0.07,0.10327 -0.1235,0.2172 -0.1875,0.32422 -0.11682,0.19198 -0.21178,0.39698 -0.34375,0.58008 -0.17663,0.24598 -0.34328,0.50101 -0.60156,0.67187 -0.19747,0.14262 -0.39601,0.28358 -0.58203,0.44141 -0.26668,0.22626 -0.52069,0.30597 -0.72266,0.28515 -1.43301,0.69811 -4.56183,3.45967 -12.76953,11.25391 -2.73793,2.59999 -6.78899,6.30512 -9.00391,8.23242 -2.21491,1.92729 -5.07329,5.11715 -6.35156,7.08985 -1.27827,1.97271 -2.6787,3.6061 -3.11133,3.6289 -0.43263,0.0228 -2.02908,1.67334 -3.54883,3.66797 -1.51976,1.99464 -3.62134,3.95169 -4.66797,4.34961 -1.04663,0.39793 -2.49645,1.44737 -3.22265,2.33203 -0.7262,0.88466 -1.5862,1.93594 -1.91016,2.33594 -2.00501,2.47559 -5.14174,7.54577 -5.62304,9.08984 -0.31202,1 -1.17519,2.34918 -1.91797,2.9961 -0.74278,0.64692 -1.34961,1.7102 -1.34961,2.36328 0,0.65308 -0.30951,1.1875 -0.6875,1.1875 -1.04643,0 -6.58594,8.05112 -6.58594,9.57226 0,0.73488 -0.32656,1.33594 -0.72656,1.33594 -0.4,0 -0.72852,0.58323 -0.72852,1.29492 0,0.7117 -0.65508,1.7652 -1.45508,2.3418 -0.8,0.57661 -1.45312,1.61074 -1.45312,2.29883 0,0.68809 -0.32852,1.45396 -0.72852,1.70117 -0.4,0.24722 -0.72656,1.08493 -0.72656,1.86133 0,0.77639 -0.32656,1.41211 -0.72656,1.41211 -0.4,0 -0.72852,0.45353 -0.72852,1.00781 0,0.55427 -0.49407,1.94411 -1.09765,3.08984 -0.20704,0.393 -0.37568,0.70985 -0.51563,0.95508 -0.0512,0.20851 -0.123,0.41336 -0.20703,0.61524 -0.18841,0.45359 -0.51319,0.80162 -0.87109,1.12695 -0.32703,0.27834 -0.66909,0.53939 -0.97852,0.83789 -0.2273,0.25413 -0.38022,0.55917 -0.51562,0.86914 -0.16634,0.39772 -0.35285,0.78623 -0.54883,1.16992 -0.16212,0.347 -0.3332,0.68911 -0.52344,1.02149 -0.40536,0.6464 -0.82812,1.28147 -1.22461,1.93359 -0.42966,0.69044 -0.82996,1.39864 -1.1875,2.12891 -0.17208,0.35861 -0.33816,0.71902 -0.5,1.08203 -0.11864,0.56808 -0.24037,1.13843 -0.36523,1.70312 -1.99091,9.00376 -1.9912,9.00444 -2.0293,39.54883 -0.021,16.8 -0.28304,32.01836 -0.58203,33.81836 -0.72255,4.34997 1.31792,41.94566 2.34375,43.18166 0.43419,0.5232 1.75403,4.0297 2.93359,7.7929 4.66938,14.8986 5.71377,17.2746 9.83789,22.379 2.21695,2.7438 4.03125,5.3218 4.03125,5.7285 0,0.4068 0.48262,1.1395 1.07227,1.6289 0.82074,0.6812 0.96956,1.871 0.63476,5.0742 -0.38165,3.6515 -0.25084,4.3144 1.02344,5.207 0.80311,0.5625 1.58535,1.6727 1.73828,2.4668 0.29328,1.5229 5.05028,3.057 9.92383,3.1992 2.09328,0.061 5.25353,1.3729 8.88086,3.6895 2.61156,1.6678 12.31255,6.0271 17.06641,7.668 15.13615,5.2243 36.04227,8.9905 38.51367,6.9394 0.80666,-0.6694 2.03726,-0.7068 4.92968,-0.1543 2.11987,0.405 6.3086,0.9472 9.3086,1.2051 3,0.2579 8.23672,0.9648 11.63672,1.5723 3.4,0.6075 8.63476,1.3559 11.63476,1.6621 h 0.002 c 11.67669,1.1916 39.77185,0.8241 54.18554,-0.709 7.59786,-0.8082 16.5961,-1.6406 19.9961,-1.8496 9.31685,-0.5726 37.17885,-5.5106 43.36718,-7.6856 2.12782,-0.7479 4.68324,-1.3593 5.67774,-1.3593 5.36926,0 20.94634,-4.685 31.09961,-9.3536 3.4013,-1.564 7.79939,-3.066 9.77539,-3.3378 2.72069,-0.3742 3.76279,-0.8806 4.29101,-2.084 0.42383,-0.9655 1.48206,-1.6786 2.69727,-1.8184 1.1,-0.1266 2,-0.4696 2,-0.7617 0,-0.7118 2.20005,-3.6186 4,-5.2852 8.31056,-7.695 10.5368,-10.4652 10.5625,-13.1484 0.0204,-2.1332 2.31439,-7.1967 3.82812,-8.4492 0.87991,-0.7281 1.16602,-2.3005 1.16602,-6.4121 0,-5.0223 0.65225,-8.552 2.26953,-12.2598 0.34895,-0.8 1.00647,-4.2348 1.45899,-7.6348 0.73944,-5.5558 1.13826,-11.3094 2.64257,-37.99996 0.23954,-4.24975 0.66981,-7.73744 0.95704,-7.81836 h 0.002 0.002 0.002 0.002 0.002 l 0.002,-0.002 h 0.002 0.002 l 0.002,-0.002 0.002,-0.002 c 0.27365,-0.15477 0.34706,-4.18313 0.1582,-9.08594 -0.25049,-6.50237 -0.11386,-9.08984 0.47656,-9.08984 0.454,0 0.82422,-0.81836 0.82422,-1.81836 0,-1 -0.32656,-1.81836 -0.72656,-1.81836 -0.41559,0 -0.72656,-2.1827 -0.72656,-5.0918 0,-2.90909 0.31097,-5.08984 0.72656,-5.08984 1.11736,0 0.86272,-2.87752 -0.36328,-4.10352 -0.816,-0.816 -1.0918,-2.82632 -1.0918,-7.97461 0,-5.03723 -0.30668,-7.35213 -1.14453,-8.63086 -0.62966,-0.96098 -1.61012,-3.81294 -2.17969,-6.33789 -1.1126,-4.93227 -6.13952,-18.2506 -7.03906,-18.65039 -0.3,-0.13333 -0.54492,-0.85069 -0.54492,-1.59375 0,-0.74306 -0.32666,-1.55357 -0.72656,-1.80078 -0.40001,-0.24721 -0.72852,-1.25255 -0.72852,-2.23437 0,-1.57318 -1.1278,-4.35857 -2.1875,-5.40235 -0.20305,-0.2 -1.31856,-2.16328 -2.47852,-4.36328 -2.71453,-5.14841 -4.63619,-8.00431 -6.60937,-9.81836 -0.87018,-0.8 -1.80453,-2.35312 -2.07617,-3.45312 -0.27163,-1.1 -0.81465,-2 -1.20703,-2 -0.39237,0 -0.71295,-0.60698 -0.71289,-1.34766 -10e-6,-0.74067 -0.9836,-2.37323 -2.1836,-3.62891 -1.2,-1.25569 -2.18164,-2.64669 -2.18164,-3.08984 0,-0.44316 -0.92708,-1.67388 -2.06055,-2.73437 -1.13347,-1.06048 -2.4673,-2.68946 -2.96484,-3.6211 -1.07441,-2.01186 -2.55537,-3.87152 -5.53125,-6.94726 -1.20662,-1.24711 -3.00255,-3.41446 -3.99023,-4.81446 -2.71354,-3.84632 -3.802,-5.13484 -6.08008,-7.20117 -1.14514,-1.0387 -3.10843,-2.9842 -4.36328,-4.32226 -1.25486,-1.33806 -3.48254,-3.70955 -4.95118,-5.27149 -1.46864,-1.56194 -3.26864,-2.84651 -4,-2.85351 -0.73136,-0.007 -3.08425,-1.64373 -5.22656,-3.63672 -2.14232,-1.993 -4.19388,-3.62305 -4.56055,-3.62305 -0.36662,0 -2.05112,-1.25494 -3.74218,-2.78906 -1.69106,-1.53412 -3.64766,-2.99667 -4.34766,-3.25 -0.58042,-0.20784 -0.98553,-0.59531 -1.16601,-0.97071 -0.0395,-0.0206 -0.0803,-0.0509 -0.1211,-0.0937 -0.0871,-0.0914 -0.19041,-0.16724 -0.28711,-0.24804 -0.18879,-0.16154 -0.33092,-0.36722 -0.47656,-0.56641 -0.0989,-0.13824 -0.19471,-0.27725 -0.28711,-0.41992 v -0.002 l -0.002,-0.002 -0.002,-0.002 c -0.032,-0.024 -0.064,-0.0477 -0.0957,-0.0723 -0.0773,-0.0611 -0.1446,-0.13231 -0.2168,-0.19921 -0.0766,-0.0653 -0.15146,-0.13408 -0.22656,-0.20118 -0.0738,-0.0731 -0.14389,-0.14845 -0.2168,-0.22265 -0.0764,-0.0684 -0.15326,-0.13729 -0.22656,-0.20899 -0.0626,-0.0603 -0.12524,-0.12089 -0.18554,-0.18359 -0.0524,-0.0563 -0.11057,-0.10671 -0.16407,-0.16211 -0.0443,-0.0458 -0.0885,-0.0897 -0.13672,-0.13086 -0.0538,-0.0407 -0.10435,-0.0851 -0.16015,-0.12305 -0.073,-0.0503 -0.1478,-0.0985 -0.2168,-0.15429 -0.057,-0.0516 -0.11943,-0.0965 -0.17773,-0.14649 -0.073,-0.0596 -0.14079,-0.12445 -0.20899,-0.18945 -0.0684,-0.0595 -0.1289,-0.12786 -0.1914,-0.19336 -0.0724,-0.0835 -0.14565,-0.16505 -0.21875,-0.24805 -0.0699,-0.0713 -0.13833,-0.1446 -0.20313,-0.2207 -0.0793,-0.0982 -0.16284,-0.19442 -0.24414,-0.29102 -0.0806,-0.0943 -0.16806,-0.18203 -0.25586,-0.26953 -0.0762,-0.0709 -0.15827,-0.13409 -0.23437,-0.20507 -0.0734,-0.0578 -0.14675,-0.11639 -0.21875,-0.17579 -0.0892,-0.0731 -0.1721,-0.15338 -0.25,-0.23828 -0.0773,-0.082 -0.14951,-0.16866 -0.22071,-0.25586 -0.0182,-0.0224 -0.0366,-0.044 -0.0547,-0.0664 -0.0733,-0.056 -0.14343,-0.11495 -0.21289,-0.17578 -0.0555,-0.0489 -0.10952,-0.0989 -0.16211,-0.15039 -0.005,-0.003 -0.0109,-0.005 -0.0156,-0.008 -0.11848,-0.0786 -0.23417,-0.16104 -0.34961,-0.24414 -0.10851,-0.0806 -0.21371,-0.166 -0.31641,-0.2539 -0.0714,-0.0664 -0.13733,-0.13894 -0.20703,-0.20704 -0.0397,-0.0514 -0.0885,-0.085 -0.14257,-0.11914 -0.0711,-0.0489 -0.15031,-0.0875 -0.22461,-0.13086 -0.0845,-0.0554 -0.17056,-0.10786 -0.25196,-0.16796 -0.066,-0.0465 -0.13302,-0.0888 -0.20312,-0.12891 -0.10734,-0.065 -0.21779,-0.1277 -0.32813,-0.1875 -0.10438,-0.0567 -0.20057,-0.12315 -0.29882,-0.18945 -0.0971,-0.0625 -0.17952,-0.14431 -0.26172,-0.22461 -0.0634,-0.0743 -0.13929,-0.13718 -0.20899,-0.20508 -0.0899,-0.0824 -0.18274,-0.16079 -0.27344,-0.24219 -0.006,-0.005 -0.0116,-0.009 -0.0176,-0.0137 -0.0815,-0.0455 -0.16065,-0.0972 -0.23438,-0.1543 -0.0957,-0.0783 -0.18418,-0.16312 -0.28711,-0.23242 -0.0856,-0.0607 -0.17782,-0.11067 -0.26562,-0.16797 -0.0731,-0.0532 -0.1549,-0.0907 -0.23243,-0.13672 -0.0284,-0.0159 -0.057,-0.0322 -0.0859,-0.0469 -0.33492,-0.0897 -0.58941,-0.20597 -0.86524,-0.43555 -0.16745,-0.12977 -0.33217,-0.26387 -0.51172,-0.37695 -0.24995,-0.17584 -0.49814,-0.35235 -0.73437,-0.54688 -0.25295,-0.199 -0.49985,-0.40691 -0.73828,-0.62304 -0.21939,-0.19873 -0.44386,-0.389 -0.66992,-0.58008 -0.21943,-0.20178 -0.44975,-0.39603 -0.64649,-0.6211 -0.13722,-0.145 -0.29317,-0.27273 -0.4707,-0.36523 -0.19376,-0.11541 -0.40408,-0.19677 -0.61914,-0.26367 -0.37759,-0.11302 -0.75803,-0.24033 -1.06055,-0.50391 -0.22026,-0.1982 -0.39989,-0.43347 -0.6289,-0.62304 -0.24041,-0.22245 -0.50592,-0.41422 -0.75782,-0.62305 -0.15447,-0.12999 -0.30199,-0.26724 -0.48047,-0.36524 -0.17111,-0.11933 -0.3448,-0.23261 -0.51757,-0.34961 -0.18207,-0.15694 -0.34262,-0.3355 -0.49024,-0.52539 -0.12856,-0.14016 -0.25458,-0.27874 -0.41211,-0.38867 -0.1878,-0.13651 -0.38075,-0.26452 -0.57031,-0.39844 -0.16585,-0.11259 -0.33412,-0.21937 -0.5,-0.33203 -0.17791,-0.13701 -0.34685,-0.28551 -0.48828,-0.46093 -0.12616,-0.15894 -0.2572,-0.31354 -0.37305,-0.48047 -0.11446,-0.1778 -0.27993,-0.31726 -0.40625,-0.48633 -0.14328,-0.18934 -0.32521,-0.34605 -0.48437,-0.52149 -0.16971,-0.1892 -0.35292,-0.36463 -0.54493,-0.53125 -0.16908,-0.15027 -0.33189,-0.306 -0.51367,-0.4414 -0.14729,-0.13122 -0.29858,-0.25916 -0.44336,-0.39258 -0.166,-0.12213 -0.31692,-0.26133 -0.48633,-0.37891 -0.18434,-0.14432 -0.36891,-0.28552 -0.5371,-0.44921 -0.16926,-0.15004 -0.34935,-0.29096 -0.5,-0.46094 -0.16123,-0.15487 -0.32097,-0.31237 -0.48633,-0.46289 -0.16176,-0.15784 -0.34311,-0.29532 -0.53125,-0.41993 -0.24783,-0.16034 -0.49846,-0.31773 -0.74219,-0.48437 -0.18097,-0.13089 -0.34776,-0.27417 -0.5,-0.43555 -0.0452,-0.0214 -0.0903,-0.0452 -0.13281,-0.0723 -0.18719,-0.11581 -0.36814,-0.23285 -0.52539,-0.38867 -0.15766,-0.14707 -0.34223,-0.26604 -0.50586,-0.40625 -0.20738,-0.18745 -0.40966,-0.37877 -0.61133,-0.57227 -0.0489,-0.0469 -0.0927,-0.0939 -0.13086,-0.14063 -0.007,-0.003 -0.014,-0.005 -0.0215,-0.008 -0.16711,-0.10735 -0.33876,-0.20705 -0.51172,-0.30469 -0.20978,-0.13205 -0.40995,-0.27043 -0.58008,-0.45312 -0.16245,-0.16447 -0.31917,-0.33165 -0.45703,-0.51758 -0.12527,-0.14393 -0.26506,-0.27431 -0.39258,-0.41601 -0.1574,-0.14493 -0.32144,-0.27995 -0.46484,-0.43946 -0.14858,-0.15709 -0.28946,-0.3205 -0.42579,-0.48828 -0.15876,-0.18118 -0.30611,-0.37225 -0.4746,-0.54492 -0.18444,-0.20833 -0.38146,-0.40698 -0.58594,-0.5957 -0.1808,-0.16451 -0.37185,-0.31694 -0.56641,-0.46485 -0.18189,-0.13691 -0.35985,-0.27873 -0.55273,-0.40039 -0.1943,-0.15204 -0.37671,-0.31561 -0.55469,-0.48633 -0.18973,-0.19244 -0.38092,-0.38511 -0.51172,-0.625 -0.14014,-0.21911 -0.28372,-0.43713 -0.42383,-0.65625 -0.1327,-0.18621 -0.25546,-0.38148 -0.42968,-0.5332 -0.15378,-0.14194 -0.32043,-0.26496 -0.4961,-0.37891 -0.19908,-0.15327 -0.38876,-0.31789 -0.54101,-0.51953 -0.18117,-0.20377 -0.34935,-0.42034 -0.4961,-0.65039 -0.18266,-0.28352 -0.33186,-0.58613 -0.51562,-0.86914 -0.1544,-0.24507 -0.29316,-0.49929 -0.46875,-0.73047 -0.15191,-0.19427 -0.29999,-0.39345 -0.48438,-0.55859 -0.10693,-0.11262 -0.21539,-0.22603 -0.3164,-0.34375 -0.19939,-0.0595 -0.38963,-0.19334 -0.52735,-0.30273 -0.24554,-0.19934 -0.42472,-0.45622 -0.58594,-0.72461 -0.15199,-0.22531 -0.26337,-0.47459 -0.40625,-0.70508 -0.154,-0.23289 -0.27181,-0.48578 -0.4082,-0.72852 -0.13616,-0.25249 -0.27723,-0.5026 -0.39648,-0.76367 -0.12596,-0.2486 -0.20868,-0.51389 -0.29688,-0.77734 -0.0122,-0.0566 -0.0257,-0.11265 -0.041,-0.16797 -0.0722,-0.0858 -0.14648,-0.17061 -0.22852,-0.24805 -0.17117,-0.1817 -0.3348,-0.37237 -0.48437,-0.57226 -0.16703,-0.25792 -0.32444,-0.52239 -0.39844,-0.82422 -0.0421,-0.16526 -0.089,-0.34377 -0.0703,-0.51758 -0.16974,-0.28271 -0.32756,-0.57205 -0.45899,-0.875 -0.17152,-0.36511 -0.33947,-0.73261 -0.49805,-1.10352 -0.0793,-0.1854 -0.11356,-0.35288 -0.11328,-0.49804 -0.0701,-0.14623 -0.13664,-0.29302 -0.19922,-0.44336 -0.0762,-0.21544 -0.16356,-0.42766 -0.23046,-0.64649 -0.0609,-0.21139 -0.12163,-0.42101 -0.17383,-0.63476 -0.0574,-0.21147 -0.1109,-0.426 -0.1543,-0.64063 -0.0446,-0.21572 -0.12997,-0.41948 -0.16797,-0.63672 -0.0488,-0.24603 -0.0719,-0.49582 -0.10547,-0.74414 -0.002,-0.0185 -0.004,-0.0367 -0.006,-0.0547 -0.57369,-2.06629 -0.69929,-4.05657 -0.6582,-7.67774 0.0584,-5.13837 0.2272,-7.38697 1.11524,-9.17773 -0.0401,-0.1939 -0.009,-0.44264 0.13281,-0.72266 0.1371,-0.27158 0.30192,-0.52747 0.47461,-0.77734 0.13207,-0.2157 0.3091,-0.39966 0.44336,-0.61329 0.14377,-0.22717 0.28376,-0.45616 0.41406,-0.6914 0.1417,-0.21417 0.26344,-0.44049 0.38867,-0.66406 0.10253,-0.17962 0.21168,-0.35477 0.31641,-0.53321 0.12314,-0.19507 0.23193,-0.39888 0.34179,-0.60156 0.17637,-0.27419 0.35351,-0.54706 0.5586,-0.80078 0.15986,-0.21614 0.35059,-0.40402 0.52343,-0.60938 0.17183,-0.17559 0.3148,-0.36934 0.44922,-0.57421 0.14628,-0.23333 0.29895,-0.46181 0.47266,-0.67579 0.029,-0.0363 0.0581,-0.0737 0.0879,-0.10937 0.043,-0.0859 0.0867,-0.17103 0.12891,-0.25781 0.13105,-0.25342 0.27791,-0.49752 0.42773,-0.74024 0.16222,-0.24482 0.32949,-0.48551 0.5,-0.72461 0.14255,-0.19685 0.2738,-0.40133 0.41992,-0.5957 0.14636,-0.19657 0.29445,-0.39125 0.45313,-0.57812 0.0972,-0.13425 0.19782,-0.26618 0.29492,-0.4004 0.0921,-0.18847 0.1833,-0.37889 0.27734,-0.5664 0.0928,-0.20537 0.17751,-0.4147 0.25391,-0.62696 0.0874,-0.21451 0.20102,-0.41676 0.31641,-0.61718 0.11149,-0.22137 0.2985,-0.38812 0.47851,-0.55274 0.15601,-0.13084 0.29025,-0.28369 0.43555,-0.42578 0.14197,-0.14256 0.28375,-0.28527 0.42969,-0.42383 0.18135,-0.16045 0.35768,-0.32539 0.5332,-0.49218 0.21333,-0.20123 0.42327,-0.40693 0.61719,-0.62696 0.15129,-0.20892 0.3275,-0.39888 0.47656,-0.60937 0.16343,-0.21295 0.34389,-0.40883 0.51758,-0.61328 0.15441,-0.17799 0.33157,-0.33808 0.47265,-0.52735 0.0472,-0.0633 0.0956,-0.11922 0.14453,-0.16797 0.0895,-0.17512 0.18097,-0.34877 0.26368,-0.52734 0.1591,-0.30804 0.34753,-0.59816 0.55078,-0.87891 0.2078,-0.28704 0.44099,-0.43057 0.64844,-0.46484 0.93244,-1.20966 2.1222,-2.50057 2.92187,-3.14453 0.99344,-0.8 3.20963,-2.8142 4.92578,-4.47656 1.26788,-1.22815 2.41429,-2.1022 3.55469,-2.68555 0.0486,-0.1096 0.12279,-0.22469 0.22656,-0.34375 0.21054,-0.24156 0.45139,-0.4533 0.70313,-0.65039 0.22381,-0.20278 0.46823,-0.37984 0.70507,-0.56641 0.18935,-0.14881 0.3748,-0.29917 0.56641,-0.44531 0.16306,-0.12592 0.33682,-0.23961 0.5,-0.36523 0.23068,-0.17864 0.4935,-0.309 0.75586,-0.4336 0.0682,-0.0333 0.13696,-0.0663 0.20508,-0.0996 0.0562,-0.19652 0.21372,-0.40803 0.5,-0.58593 0.24594,-0.15282 0.49821,-0.29651 0.74414,-0.44922 0.25666,-0.15278 0.51131,-0.30802 0.76172,-0.47071 0.20823,-0.1439 0.40659,-0.30128 0.60742,-0.45507 0.26235,-0.19889 0.51959,-0.40214 0.77539,-0.60938 0.25776,-0.20507 0.51239,-0.41279 0.76758,-0.62109 0.23673,-0.19718 0.48648,-0.37775 0.73437,-0.56055 0.26254,-0.1603 0.48836,-0.36937 0.73829,-0.54688 0.3032,-0.18831 0.61509,-0.36118 0.91992,-0.54687 0.2347,-0.15458 0.479,-0.29647 0.70703,-0.46094 0.23031,-0.15255 0.44247,-0.32863 0.67187,-0.48242 0.2731,-0.18824 0.56748,-0.3433 0.85157,-0.51367 0.34149,-0.1885 0.66234,-0.41161 0.98828,-0.625 0.27877,-0.18066 0.56025,-0.35126 0.82617,-0.55078 0.27181,-0.19736 0.53796,-0.40401 0.80664,-0.60547 0.16768,-0.15659 0.37031,-0.26728 0.54687,-0.41211 0.041,-0.0377 0.0853,-0.0706 0.13086,-0.10156 0.002,-0.003 0.004,-0.005 0.006,-0.008 0.16308,-0.18284 0.34696,-0.34665 0.53125,-0.50781 0.17573,-0.12716 0.34295,-0.26348 0.52539,-0.38086 0.11168,-0.10157 0.2345,-0.19623 0.34961,-0.29687 0.16342,-0.13191 0.32658,-0.26292 0.49024,-0.39453 0.19017,-0.14002 0.3655,-0.29085 0.57031,-0.41016 0.16155,-0.0924 0.31231,-0.20113 0.4707,-0.29883 0.18009,-0.10788 0.36129,-0.21512 0.53321,-0.33594 0.19837,-0.12194 0.38103,-0.26664 0.5625,-0.4121 0.20574,-0.15325 0.40353,-0.3162 0.61132,-0.4668 0.22627,-0.16463 0.45745,-0.32311 0.6875,-0.48242 0.18621,-0.14151 0.38097,-0.27149 0.57618,-0.40039 1.36959,-1.04718 3.49316,-3.01683 4.84375,-4.50196 1.41671,-1.55783 3.20931,-3.35783 3.98437,-4 2.12697,-1.76227 10.87941,-10.61318 18.22852,-18.43554 11.60591,-12.35325 13.1149,-14.03008 14.92578,-16.58399 1.77093,-2.49755 2.49361,-3.4118 5.61914,-7.11719 0.89951,-1.06639 1.63427,-2.18854 1.63476,-2.49218 4.9e-4,-0.30364 0.9836,-1.5783 2.1836,-2.83399 1.2,-1.25568 2.18164,-2.72495 2.18164,-3.26562 0,-0.54068 0.28771,-0.98438 0.63867,-0.98438 0.35096,0 1.57753,-1.79917 2.72656,-3.99804 1.14904,-2.19908 2.33477,-3.9991 2.63477,-4 0.3,-9.6e-4 0.54492,-0.65508 0.54492,-1.45508 0,-0.8 0.41016,-1.45794 0.91016,-1.46094 0.86736,-0.006 1.89249,-1.61742 6.24804,-9.8125 1.06296,-2 2.17852,-3.74557 2.47852,-3.87891 0.3,-0.13333 0.54492,-0.70676 0.54492,-1.27343 0,-0.56666 0.32852,-1.0293 0.72852,-1.0293 0.4,0 0.72656,-0.96228 0.72656,-2.13867 0,-1.1764 0.32823,-2.34264 0.72852,-2.58985 0.39999,-0.24721 0.72656,-1.10715 0.72656,-1.91211 0,-0.80497 0.48984,-1.95468 1.08984,-2.55468 0.6,-0.6 1.0918,-1.70336 1.0918,-2.45118 0,-0.74782 0.29886,-1.54383 0.66406,-1.76953 0.36519,-0.22571 0.8938,-1.80014 1.17383,-3.49804 0.28003,-1.6979 0.76166,-3.41446 1.07031,-3.81446 1.11503,-1.44506 3.55916,-12.7885 4.33789,-20.13086 0.43777,-4.12764 1.35031,-12.25078 2.02735,-18.05078 0.86356,-7.3978 1.23735,-16.5146 1.25195,-30.54492 0.0213,-20.55496 -0.24049,-23.17591 -3.3125,-33.34961 -0.76761,-2.54214 -1.39363,-5.48705 -1.39063,-6.54492 0.008,-3.09314 -5.65266,-23.59837 -8.16015,-29.56055 -0.84114,-2 -1.66984,-5.17244 -1.84375,-7.05078 -0.24329,-2.62781 -0.73199,-3.68741 -2.11524,-4.59375 -0.98872,-0.64784 -3.56856,-3.92113 -5.73242,-7.27539 -2.16386,-3.35426 -4.59599,-6.45308 -5.40625,-6.88672 -0.81027,-0.43364 -1.47271,-1.23283 -1.47265,-1.77539 -10e-6,-0.54256 -0.87783,-1.20766 -1.94922,-1.47656 -1.07139,-0.2689 -4.42647,-1.586 -7.45508,-2.92774 -3.02862,-1.34174 -7.8793,-3.31318 -10.7793,-4.38085 -3.64887,-1.34342 -5.27339,-2.31363 -5.27539,-3.1504 -10e-4,-0.66503 -0.65073,-2.27226 -1.44336,-3.57226 -1.4019,-2.29923 -1.57842,-2.36328 -6.46289,-2.36328 -4.9007,0 -10.38238,-1.2048 -24.1875,-5.31055 -8.19501,-2.43726 -20.97732,-4.67089 -30.08398,-5.25781 -4,-0.2578 -10.38164,-0.92898 -14.18164,-1.49219 -3.8,-0.56321 -13.78174,-1.35836 -22.18164,-1.76562 -8.4,-0.40725 -19.09289,-1.0625 -23.76172,-1.45704 -10.32098,-0.87217 -21.92366,-0.88526 -33.62891,-0.11523 z m -1.91602,337.59961 c -0.009,0.0106 -0.0192,0.0236 -0.0332,0.041 -0.005,0.007 -0.0104,0.0158 -0.0156,0.0234 0.0358,-0.004 0.0731,-0.005 0.11132,-0.002 -0.0212,-0.0222 -0.0428,-0.0431 -0.0625,-0.0625 z m 7.97852,15.76172 c 0.0137,0.0331 0.0281,0.0662 0.041,0.0996 0.0122,-0.003 0.0234,-0.005 0.0352,-0.008 -0.0242,-0.0315 -0.0498,-0.0619 -0.0762,-0.0918 z m 118.80859,61.06445 -0.002,0.002 0.01,0.008 v -0.002 -0.002 l -0.002,-0.002 v -0.002 -0.002 h -0.002 -0.002 z m -245.23437,94.2168 c -2.8e-4,0.0549 3.3e-4,0.11116 0,0.16601 0.0226,-0.0409 0.0456,-0.0823 0.0684,-0.12304 -0.005,-0.0107 -0.0108,-0.0222 -0.0156,-0.0332 -0.0176,-0.003 -0.0355,-0.006 -0.0527,-0.01 z m 2.69922,0.11914 c -0.0345,0.0672 -0.0699,0.13459 -0.10547,0.20117 0.0504,-0.0595 0.0972,-0.12226 0.13867,-0.18945 -0.0113,-0.004 -0.022,-0.008 -0.0332,-0.0117 z" />
  </g>
</svg>
